<svg width="34" height="34" viewBox="0 0 34 34" fill="none" xmlns="http://www.w3.org/2000/svg">
<path d="M27.625 0C29.3811 0 30.8826 0.623481 32.1296 1.87044C33.3765 3.1174 34 4.61892 34 6.375V27.625C34 29.3811 33.3765 30.8826 32.1296 32.1296C30.8826 33.3765 29.3811 34 27.625 34H6.375C4.61892 34 3.1174 33.3765 1.87044 32.1296C0.623481 30.8826 0 29.3811 0 27.625V6.375C0 4.61892 0.623481 3.1174 1.87044 1.87044C3.1174 0.623481 4.61892 0 6.375 0H27.625ZM11.0456 8.1237H2.83333V25.5443H11.2891C13.0156 25.5443 14.4692 25.12 15.6497 24.2715C16.8303 23.423 17.4206 22.1649 17.4206 20.4974C17.4206 18.1658 16.3655 16.6901 14.2552 16.0703C15.8342 15.303 16.6237 14.0929 16.6237 12.4401C16.6237 11.599 16.4798 10.8869 16.1921 10.304C15.9043 9.72114 15.4874 9.27474 14.9414 8.96484C14.3954 8.65495 13.8125 8.43728 13.1927 8.31185C12.5729 8.18641 11.8572 8.1237 11.0456 8.1237ZM10.5586 15.1628H6.66276V11.0898H10.2708C12.0269 11.0898 12.9049 11.7539 12.9049 13.082C12.9049 14.4692 12.1228 15.1628 10.5586 15.1628ZM10.7578 22.5781H6.66276V17.7747H10.8464C12.6762 17.7747 13.5911 18.6085 13.5911 20.276C13.5911 21.8108 12.6467 22.5781 10.7578 22.5781ZM25.1458 23.2865C24.1424 23.2865 23.375 23.0061 22.8437 22.4453C22.3125 21.8845 22.0469 21.0951 22.0469 20.0768H31.1445C31.1593 19.9293 31.1667 19.7079 31.1667 19.4128C31.1667 17.4648 30.617 15.8379 29.5176 14.5319C28.4182 13.2259 26.9167 12.5729 25.013 12.5729C23.1241 12.5729 21.5747 13.2075 20.3646 14.4766C19.1545 15.7457 18.5495 17.3394 18.5495 19.2578C18.5495 21.25 19.1324 22.8511 20.2982 24.0612C21.464 25.2713 23.0356 25.8763 25.013 25.8763C28.0382 25.8763 30.0082 24.467 30.9232 21.6484H27.8685C27.7062 22.1502 27.3557 22.5486 26.8171 22.8437C26.2784 23.1389 25.7214 23.2865 25.1458 23.2865ZM24.9245 15.1849C26.592 15.1849 27.5069 16.0851 27.6693 17.8854H22.0469C22.1059 17.059 22.3937 16.4023 22.9102 15.9154C23.4266 15.4284 24.0981 15.1849 24.9245 15.1849ZM21.3385 9.29687H28.3997V11.0013H21.3385V9.29687Z" fill="#455BD0"/>
</svg>
