<svg width="30" height="30" viewBox="0 0 30 30" fill="none" xmlns="http://www.w3.org/2000/svg">
<path d="M6.5823 12.2063C7.16716 10.4368 8.29588 8.89726 9.80745 7.80725C11.319 6.71723 13.1362 6.13242 14.9998 6.13625C17.1123 6.13625 19.0223 6.88625 20.5223 8.11375L24.8873 3.75C22.2273 1.43125 18.8186 0 14.9998 0C9.08731 0 3.9973 3.3725 1.5498 8.3125L6.5823 12.2063Z" fill="#EA4335"/>
<path d="M20.0496 22.5162C18.6871 23.395 16.9571 23.8637 14.9996 23.8637C13.1435 23.8675 11.3332 23.2874 9.82494 22.2054C8.31674 21.1234 7.18708 19.5945 6.5959 17.835L1.5459 21.6687C2.78495 24.1766 4.70248 26.2867 7.08068 27.7594C9.45887 29.2321 12.2024 30.0083 14.9996 30C18.6659 30 22.1684 28.6962 24.7921 26.25L20.0509 22.5162H20.0496Z" fill="#34A853"/>
<path d="M24.7925 26.25C27.5362 23.69 29.3175 19.88 29.3175 15C29.3175 14.1125 29.1812 13.1587 28.9775 12.2725H15V18.0687H23.045C22.6488 20.0175 21.5825 21.5262 20.0513 22.5162L24.7925 26.25Z" fill="#4A90E2"/>
<path d="M6.5964 17.835C6.29059 16.9211 6.13523 15.9637 6.1364 15C6.1364 14.0225 6.29264 13.0837 6.58265 12.2062L1.55015 8.3125C0.520618 10.3909 -0.0100999 12.6806 0.000145568 15C0.000145568 17.4 0.556396 19.6625 1.5464 21.6687L6.5964 17.835Z" fill="#FBBC05"/>
</svg>
