<svg width="36" height="36" viewBox="0 0 36 36" fill="none" xmlns="http://www.w3.org/2000/svg">
<path d="M28.1377 10.3314C27.9216 9.77057 27.5903 9.26127 27.1653 8.83628C26.7403 8.41129 26.231 8.08004 25.6702 7.86387C24.8967 7.57791 24.0799 7.42639 23.2552 7.41587C21.8832 7.35287 21.4702 7.33887 18 7.33887C14.5297 7.33887 14.1185 7.35287 12.75 7.41587C11.9253 7.42472 11.1084 7.57568 10.335 7.86212C9.19924 8.29962 8.30499 9.19562 7.86749 10.3296C7.58049 11.1049 7.42999 11.9221 7.41949 12.7446C7.35649 14.1166 7.34424 14.5279 7.34424 17.9999C7.34424 21.4719 7.35649 21.8849 7.41949 23.2551C7.42824 24.0794 7.58049 24.8966 7.86574 25.6701C8.08201 26.2309 8.41329 26.7401 8.83827 27.1651C9.26324 27.5901 9.77249 27.9213 10.3332 28.1376C11.1085 28.4229 11.9257 28.5751 12.7482 28.5839C14.1185 28.6469 14.5297 28.6591 18.0017 28.6591C21.4737 28.6591 21.8867 28.6469 23.257 28.5839C24.0817 28.5743 24.8987 28.4228 25.672 28.1359C26.2327 27.9196 26.742 27.5883 27.167 27.1633C27.5919 26.7384 27.9232 26.2291 28.1395 25.6684C28.4265 24.8966 28.577 24.0794 28.5875 23.2534C28.6505 21.8831 28.6627 21.4719 28.6627 17.9999C28.6627 14.5279 28.6505 14.1166 28.5875 12.7464C28.578 11.9216 28.4264 11.1047 28.1395 10.3314H28.1377ZM18 24.6761C17.1233 24.6761 16.2551 24.5034 15.4451 24.1679C14.6351 23.8324 13.8991 23.3406 13.2792 22.7207C12.6592 22.1007 12.1675 21.3648 11.8319 20.5548C11.4964 19.7448 11.3237 18.8766 11.3237 17.9999C11.3237 17.1231 11.4964 16.255 11.8319 15.445C12.1675 14.635 12.6592 13.899 13.2792 13.279C13.8991 12.6591 14.6351 12.1673 15.4451 11.8318C16.2551 11.4963 17.1233 11.3236 18 11.3236C19.7706 11.3236 21.4688 12.027 22.7208 13.279C23.9729 14.5311 24.6762 16.2292 24.6762 17.9999C24.6762 19.7705 23.9729 21.4686 22.7208 22.7207C21.4688 23.9727 19.7706 24.6761 18 24.6761ZM24.9405 12.6186C24.5358 12.6051 24.1521 12.4348 23.8706 12.1437C23.5891 11.8526 23.4317 11.4634 23.4317 11.0585C23.4317 10.6535 23.5891 10.2644 23.8706 9.97333C24.1521 9.68223 24.5358 9.51192 24.9405 9.49837H24.9422C25.347 9.51074 25.7312 9.67995 26.0135 9.97027C26.2959 10.2606 26.4544 10.6493 26.4555 11.0543C26.4567 11.4592 26.3004 11.8488 26.0196 12.1407C25.7389 12.4326 25.3557 12.604 24.951 12.6186H24.9405Z" fill="url(#paint0_linear)"/>
<path d="M17.9998 13.6653C17.1425 13.6653 16.3044 13.9195 15.5915 14.3958C14.8787 14.8721 14.3231 15.5491 13.995 16.3412C13.6669 17.1333 13.5811 18.0048 13.7483 18.8457C13.9156 19.6866 14.3284 20.4589 14.9347 21.0652C15.5409 21.6714 16.3133 22.0842 17.1541 22.2515C17.995 22.4187 18.8666 22.3329 19.6586 22.0048C20.4507 21.6767 21.1277 21.1211 21.604 20.4083C22.0803 19.6954 22.3345 18.8574 22.3345 18C22.3345 16.8507 21.8781 15.7484 21.0655 14.9355C20.253 14.1226 19.1509 13.6657 18.0015 13.6653H17.9998Z" fill="url(#paint1_linear)"/>
<path d="M35.3775 9.3725C35.3618 8.01943 35.1132 6.67917 34.6425 5.4105C34.3002 4.48294 33.7542 3.64394 33.0448 2.95525C32.3562 2.24569 31.5171 1.69969 30.5895 1.3575C29.3199 0.887893 27.9793 0.639295 26.6258 0.6225C24.3735 0.5245 23.6997 0.5 18 0.5C12.3038 0.5 11.6265 0.521 9.376 0.6225C8.0215 0.64 6.681 0.88675 5.41225 1.3575C4.48475 1.69875 3.64475 2.24475 2.957 2.95525C2.24881 3.64496 1.70303 4.48366 1.35925 5.4105C0.889709 6.68009 0.641115 8.02072 0.62425 9.37425C0.5245 11.6265 0.5 12.302 0.5 18.0018C0.5 23.7015 0.521 24.377 0.62425 26.6275C0.64175 27.9803 0.8885 29.3225 1.35925 30.5912C1.7005 31.5187 2.2465 32.3587 2.95525 33.0448C3.64436 33.7537 4.48323 34.2996 5.4105 34.6425C6.67971 35.1134 8.02058 35.3621 9.37425 35.3775C11.6248 35.4808 12.302 35.5 18 35.5C23.6997 35.5 24.3752 35.479 26.6275 35.3775C27.9806 35.3619 29.3208 35.1132 30.5895 34.6425C31.5104 34.2875 32.3468 33.7437 33.0449 33.0459C33.7429 32.3482 34.2871 31.512 34.6425 30.5912C35.1115 29.3207 35.36 27.9803 35.3775 26.6275C35.479 24.3752 35.5 23.698 35.5 18C35.5 12.3003 35.479 11.6265 35.3775 9.3725ZM30.9237 23.3602C30.9031 24.4392 30.6989 25.5068 30.32 26.5173C29.9859 27.381 29.475 28.1653 28.8202 28.8202C28.1653 29.475 27.381 29.9859 26.5173 30.32C25.5072 30.6982 24.4403 30.9024 23.362 30.9237C21.9743 30.9885 21.5315 31.0025 18 31.0025C14.4685 31.0025 14.0275 30.9867 12.6398 30.9237C11.5614 30.9023 10.4946 30.6981 9.4845 30.32C8.62042 29.9862 7.83564 29.4754 7.18047 28.8206C6.52531 28.1657 6.01423 27.3812 5.68 26.5173C5.3016 25.5067 5.09745 24.4392 5.07625 23.3602C5.015 21.9742 4.9975 21.5315 4.9975 18C4.9975 14.4685 5.01325 14.0258 5.07625 12.6398C5.09745 11.5608 5.3016 10.4934 5.68 9.48275C6.01414 8.61877 6.52518 7.83417 7.18036 7.1793C7.83553 6.52442 8.62036 6.01374 9.4845 5.68C10.4945 5.30179 11.5614 5.09765 12.6398 5.07625C14.0275 5.0115 14.472 4.9975 18.0018 4.9975C21.5315 4.9975 21.9743 5.01325 23.362 5.07625C24.4409 5.09718 25.5085 5.30134 26.519 5.68C27.3824 6.01434 28.1664 6.52527 28.821 7.1801C29.4755 7.83493 29.9861 8.61922 30.32 9.48275C30.6998 10.4943 30.9028 11.56 30.9237 12.6398C30.9867 14.0258 31.0025 14.4685 31.0025 18C31.0025 21.5315 30.9867 21.9725 30.9237 23.3602Z" fill="url(#paint2_linear)"/>
<defs>
<linearGradient id="paint0_linear" x1="7" y1="29" x2="29" y2="7" gradientUnits="userSpaceOnUse">
<stop stop-color="#FDD97B"/>
<stop offset="0.338542" stop-color="#F45744"/>
<stop offset="0.677083" stop-color="#D02D96"/>
<stop offset="1" stop-color="#5266CC"/>
</linearGradient>
<linearGradient id="paint1_linear" x1="14" y1="22" x2="22" y2="14" gradientUnits="userSpaceOnUse">
<stop stop-color="#FDD97B"/>
<stop offset="0.338542" stop-color="#F45744"/>
<stop offset="0.677083" stop-color="#D02D96"/>
<stop offset="1" stop-color="#5266CC"/>
</linearGradient>
<linearGradient id="paint2_linear" x1="1" y1="36" x2="36" y2="1" gradientUnits="userSpaceOnUse">
<stop stop-color="#FDD97B"/>
<stop offset="0.338542" stop-color="#F45744"/>
<stop offset="0.677083" stop-color="#D02D96"/>
<stop offset="1" stop-color="#5266CC"/>
</linearGradient>
</defs>
</svg>
