<svg width="34" height="34" viewBox="0 0 34 34" fill="none" xmlns="http://www.w3.org/2000/svg">
<g clip-path="url(#clip0)">
<path d="M0 17.0003C0 23.9615 4.18598 29.9418 10.176 32.5711C10.1281 31.384 10.1675 29.9589 10.4719 28.6673C10.7987 27.2873 12.6593 19.4039 12.6593 19.4039C12.6593 19.4039 12.1162 18.3184 12.1162 16.7142C12.1162 14.1949 13.5764 12.3133 15.3948 12.3133C16.9412 12.3133 17.6882 13.4748 17.6882 14.8656C17.6882 16.42 16.6968 18.7452 16.1869 20.8987C15.761 22.702 17.0911 24.1729 18.8701 24.1729C22.0911 24.1729 24.2605 20.036 24.2605 15.1344C24.2605 11.4085 21.751 8.61966 17.1866 8.61966C12.0298 8.61966 8.81716 12.4654 8.81716 16.7611C8.81716 18.2422 9.25384 19.2866 9.93783 20.0955C10.2523 20.4669 10.296 20.6164 10.1822 21.0429C10.1007 21.3557 9.91339 22.1088 9.83583 22.4072C9.72267 22.8378 9.37377 22.9917 8.98463 22.8327C6.60941 21.8631 5.50322 19.2619 5.50322 16.3379C5.50322 11.5087 9.57605 5.71811 17.6532 5.71811C24.1437 5.71811 28.4156 10.4149 28.4156 15.4566C28.4156 22.1255 24.708 27.1077 19.2428 27.1077C17.4075 27.1077 15.681 26.1156 15.0896 24.9887C15.0896 24.9887 14.1027 28.9056 13.8936 29.6619C13.5332 30.9727 12.8277 32.2827 12.1826 33.3038C13.7468 33.7663 15.3695 34.0011 17.0007 34.0009C26.3884 34.0009 34.0001 26.3896 34.0001 17.0003C34.0001 7.61135 26.3884 0 17.0007 0C7.61202 0 0 7.61135 0 17.0003Z" fill="#CB1F27"/>
</g>
<defs>
<clipPath id="clip0">
<rect width="34" height="34" fill="white"/>
</clipPath>
</defs>
</svg>
