<svg width="34" height="34" viewBox="0 0 34 34" fill="none" xmlns="http://www.w3.org/2000/svg">
<path d="M17 0C7.61109 0 0 7.61109 0 17C0 26.3889 7.61109 34 17 34C26.3889 34 34 26.3889 34 17C34 7.61109 26.3889 0 17 0Z" fill="#40B3E0"/>
<path d="M25.272 9.77895L22.2356 25.0881C22.2356 25.0881 21.811 26.1498 20.6431 25.6402L13.6362 20.2682L11.0883 19.0368L6.79929 17.5928C6.79929 17.5928 6.14107 17.3594 6.07732 16.8498C6.01357 16.3402 6.82054 16.0642 6.82054 16.0642L23.8705 9.37574C23.8705 9.37574 25.2719 8.76002 25.2719 9.77922" fill="white"/>
<path d="M13.0973 24.916C13.0973 24.916 12.8928 24.8969 12.6378 24.0899C12.3832 23.2831 11.0879 19.0366 11.0879 19.0366L21.3859 12.4969C21.3859 12.4969 21.9805 12.1359 21.9593 12.4969C21.9593 12.4969 22.0654 12.5606 21.7468 12.8578C21.4284 13.1552 13.6571 20.1408 13.6571 20.1408" fill="#D2E5F1"/>
<path d="M16.3227 22.3278L13.5513 24.8546C13.5513 24.8546 13.3346 25.0191 13.0977 24.916L13.6284 20.2224" fill="#B5CFE4"/>
</svg>
