<svg width="34" height="34" viewBox="0 0 34 34" fill="none" xmlns="http://www.w3.org/2000/svg">
<path d="M6.66211 0C2.99808 0 0 2.99808 0 6.66211V27.3379C0 31.0019 2.99808 34 6.66211 34H27.3379C31.0019 34 34 31.0019 34 27.3379V6.66211C34 2.99808 31.0019 0 27.3379 0H6.66211ZM10.476 7.67134H17.1827C18.5756 7.67134 19.6336 7.7223 20.3518 7.83176C21.0699 7.93576 21.7445 8.15867 22.3713 8.49787C23.0496 8.86329 23.5592 9.35538 23.8948 9.96499C24.2303 10.5782 24.4005 11.283 24.4005 12.0844C24.4005 13.0106 24.1694 13.8339 23.7035 14.5566C23.2422 15.2792 22.6021 15.8107 21.7881 16.1544V16.2531C22.9594 16.5019 23.8988 17.0023 24.6034 17.7638C25.309 18.5263 25.6615 19.5526 25.6615 20.8415C25.6615 21.7849 25.4834 22.617 25.1261 23.3306C24.7689 24.0443 24.2906 24.6323 23.6855 25.1027C22.9719 25.6635 22.1886 26.0592 21.3302 26.2989C20.4773 26.5377 19.3939 26.6569 18.0751 26.6569H10.4761V7.67137L10.476 7.67134ZM15.2195 11.1516V15.1695H15.8197C16.6337 15.1695 17.2089 15.1612 17.5354 15.144C17.862 15.1269 18.2018 15.0394 18.55 14.8784C18.9281 14.7003 19.1943 14.4529 19.3372 14.139C19.481 13.8215 19.555 13.4549 19.555 13.0416C19.555 12.7332 19.4765 12.4191 19.3191 12.0972C19.1626 11.7752 18.9195 11.5398 18.584 11.396C18.271 11.2567 17.901 11.1833 17.4695 11.1697C17.039 11.1561 16.3993 11.1517 15.5509 11.1517H15.2194L15.2195 11.1516ZM15.2195 18.4214V23.1745H15.4766C16.7175 23.1745 17.5746 23.1651 18.0486 23.1479C18.5225 23.1308 19.0107 23.0182 19.5019 22.8048C19.9378 22.6176 20.2508 22.3432 20.4517 21.9814C20.6515 21.6205 20.7513 21.2111 20.7513 20.7544C20.7513 20.1665 20.6351 19.7097 20.3954 19.3786C20.1566 19.044 19.7993 18.7954 19.3245 18.6254C19.0369 18.5123 18.6361 18.4511 18.1314 18.4384C17.6267 18.4258 16.9484 18.4214 16.0991 18.4214H15.2195H15.2195Z" fill="#598FCF"/>
</svg>
